<?xml version="1.0" encoding="utf-8"?>
<!-- Generator: Adobe Illustrator 19.0.0, SVG Export Plug-In . SVG Version: 6.00 Build 0)  -->
<svg version="1.1" id="Layer_1" xmlns="http://www.w3.org/2000/svg" xmlns:xlink="http://www.w3.org/1999/xlink" x="0px" y="0px"
	 viewBox="-244 373.5 122 46.5" style="enable-background:new -244 373.5 122 46.5;" xml:space="preserve">
<style type="text/css">
	.st0{opacity:0.2;fill:#242A30;enable-background:new    ;}
	.st1{fill:#242A30;}
	.st2{fill:#F6F6F6;}
</style>
<g transform="translate(1299.163 -24.825)">
	<circle class="st0" cx="-1519.9" cy="421.6" r="23.2"/>
	<path class="st1" d="M-1505.4,411v-2.7c0-1.5-1.2-2.8-2.8-2.8c0,0,0,0,0,0c-0.8,0-1.5,0.3-2,0.9c-2.9-1.9-6.3-2.8-9.7-2.8
		c-3.4,0-6.8,1-9.7,2.8c-0.5-0.6-1.3-0.9-2-0.9c-1.5,0-2.8,1.2-2.8,2.7c0,0,0,0,0,0v2.7c-2.2,3.1-3.5,6.8-3.5,10.6
		c0,9.9,8.1,18,18,18c9.9,0,18-8.1,18-18C-1501.9,417.8-1503.2,414.1-1505.4,411z M-1505.5,428.9c0,2.2-1.8,4.1-4.1,4.1c0,0,0,0,0,0
		h-7.4l2.2-5.5h2.1c0.8-0.2,1.5-0.9,1.7-1.7v-5.5c-0.2-1-1.1-1.7-2.2-1.8h-2.4c-1.2,0-2.2,1-2.2,2.3h-0.1v6.1h-4.3v-6.6
		c-0.2-1-1.1-1.7-2.2-1.8h-2.4c-1.2,0-2.2,1-2.2,2.3h-0.1v4.5h0.1c0,1,0.7,2,1.7,2.2h1.9l2.1,5.5h-7.2c-2.2,0-4.1-1.8-4.1-4.1
		c0,0,0,0,0,0v-15.7l5.5-3h18l5.4,3L-1505.5,428.9z"/>
	<path class="st2" d="M-1528.9,410.2l-5.5,3v15.7c0,2.2,1.8,4.1,4.1,4.1c0,0,0,0,0,0h7.2l-2.1-5.5h-1.9c-1-0.3-1.7-1.2-1.7-2.2h-0.1
		v-4.5h0.1c0-1.2,1-2.3,2.2-2.3h2.4c1,0,1.9,0.8,2.2,1.8v6.6h4.3v-6.1h0.1c0-1.2,1-2.3,2.2-2.3h2.4c1,0,1.9,0.8,2.2,1.8v5.5
		c-0.2,0.8-0.8,1.5-1.7,1.7h-2.1l-2.2,5.5h7.4c2.2,0,4.1-1.8,4.1-4.1c0,0,0,0,0,0v-15.8l-5.4-3H-1528.9z"/>
	<path class="st1" d="M-1490.1,433.4v-8.1h4c-0.1,1.2,0.4,2.4,1.2,3.3c0.7,0.7,1.5,1,2.5,1c0.7,0,1.4-0.2,1.8-0.7
		c0.5-0.5,0.7-1.1,0.7-1.8c0-0.7-0.2-1.4-0.7-1.8c-0.8-0.7-1.7-1.3-2.6-1.7c-2.1-0.9-3.9-2-5.6-3.5c-1-1.1-1.6-2.6-1.5-4.1
		c-0.1-1.8,0.6-3.6,1.9-4.8c1.2-1.1,2.8-1.7,4.4-1.7c1.7-0.1,3.4,0.8,4.4,2.2v-2h4v7.2h-4c-0.1-1-0.5-1.9-1.2-2.6
		c-0.6-0.6-1.4-0.9-2.2-0.9c-0.6,0-1.2,0.2-1.7,0.6c-0.4,0.3-0.7,0.8-0.7,1.4c0,0.5,0.2,1,0.6,1.4c1,0.8,2.1,1.4,3.3,1.8
		c1.4,0.6,2.7,1.3,4,2.1c0.9,0.6,1.7,1.5,2.2,2.5c0.6,1.1,0.8,2.3,0.8,3.5c0.1,2-0.6,3.9-2,5.3c-1.3,1.2-3,1.8-4.8,1.8
		c-1.9,0.1-3.7-0.7-4.8-2.3v2h-3.9L-1490.1,433.4z"/>
	<path class="st1" d="M-1473.6,433.4v-3.9h2.8v-15.7h-2.8v-4h20.9v7.5h-4.6v-3.5h-7.3v5.5h5.9v4h-5.9v6.2h7.3v-3.6h4.6v7.5H-1473.6z
		"/>
	<path class="st1" d="M-1421.2,413.7v-4h-10.4l-4.5,13.9l-4.6-13.9h-10.3v4h2.2v15.7h-2.2v3.9h8.7v-3.9h-2.2v-15.7l0,0l6.5,19.7h3.8
		l6.4-19.7h0.1v15.7h-2.2v3.9h8.7v-3.9h-2.2v-15.7H-1421.2z"/>
</g>
</svg>
